# xmcd CD database file
#
# Track frame offsets:
#	150
#	29475
#	50995
#	93403
#	121266
#	151745
#	184393
#	204095
#	229840
#	255940
#
# Disc length: 3958 seconds
#
# Revision: 0
# Processed by: cddbd v1.5.2PL0 Copyright (c) Steve Scherf et al.
# Submitted via: CDex 1.81
#
DISCID=7e0f740a
DTITLE=Artrio and Friends - live
DYEAR=2014
DGENRE=Jazz
TTITLE0=Alles im Rahmen
TTITLE1=Tango Prospero
TTITLE2=Der 5. Rat
TTITLE3=Da samma
TTITLE4=Eiszeit
TTITLE5=Pictures for Pamela
TTITLE6=Vento d'estate
TTITLE7=Falling in Love
TTITLE8=Sturmtief Andrea
TTITLE9=Pulcinelle
EXTD=YEAR: 2014
EXTT0=
EXTT1=
EXTT2=
EXTT3=
EXTT4=
EXTT5=
EXTT6=
EXTT7=
EXTT8=
EXTT9=
PLAYORDER=
